<svg xmlns="http://www.w3.org/2000/svg" xmlns:xlink="http://www.w3.org/1999/xlink" id="bniaauzgms-Capa_1" x="0px" y="0px" width="512px" height="512px" viewBox="0 0 314.014 314.015" style="enable-background:new 0 0 314.014 314.015;" xml:space="preserve">
<g>
	<g id="bniaauzgms-_x32_40._Power">
		<g>
			<path d="M157.007,0C70.292,0,0,70.292,0,157.007c0,86.708,70.292,157.007,157.007,157.007     c86.709,0,157.007-70.299,157.007-157.007C314.014,70.292,243.716,0,157.007,0z M157.007,282.612     c-69.373,0-125.605-56.24-125.605-125.605c0-69.373,56.232-125.605,125.605-125.605c69.364,0,125.604,56.232,125.604,125.605     C282.612,226.372,226.372,282.612,157.007,282.612z M204.111,141.368l-40.632,0.165c-4.34,0.02-5.935-2.91-3.574-6.554     l43.492-66.87c4.729-7.268,3.587-8.187-2.536-2.056L105.305,161.6c-6.133,6.132-4.073,11.076,4.601,11.041l32.773-0.133     c8.668-0.036,11.873,5.827,7.145,13.097l-43.49,66.872c-2.362,3.635-1.792,4.104,1.286,1.05l68.295-67.81     c3.073-3.058,8.035-8.031,11.068-11.121l21.805-22.111C214.875,146.317,212.775,141.33,204.111,141.368z" fill="#006DF0"></path>
		</g>
	</g>
</g>
</svg>
